<svg width="176" height="184" viewBox="0 0 176 184" fill="none" xmlns="http://www.w3.org/2000/svg">
<g clip-path="url(#clip0_501_94)">
<path fill-rule="evenodd" clip-rule="evenodd" d="M87.9997 167.875C127.736 167.875 159.949 135.643 159.949 95.8836C159.949 56.124 127.736 23.8926 87.9997 23.8926C48.2634 23.8926 16.0508 56.124 16.0508 95.8836C16.0508 135.643 48.2634 167.875 87.9997 167.875Z" stroke="#3AD29F" stroke-width="0.305962" stroke-dasharray="1.84 1.84"/>
<path fill-rule="evenodd" clip-rule="evenodd" d="M87.9998 183.146C136.165 183.146 175.211 144.077 175.211 95.8839C175.211 47.6905 136.165 8.62207 87.9998 8.62207C39.8347 8.62207 0.789062 47.6905 0.789062 95.8839C0.789062 144.077 39.8347 183.146 87.9998 183.146Z" stroke="#3AD29F" stroke-width="0.305962" stroke-dasharray="1.84 1.84"/>
<path d="M146.369 123.684C146.371 113.524 138.646 105.032 128.537 104.081C118.428 103.129 109.256 110.032 107.366 120.014L46.9023 118.373L47.5661 128.767C47.5661 128.767 38.9444 148.672 84.2576 153.976V174.094H136.642V140.644C142.662 137.117 146.363 130.663 146.369 123.684Z" fill="url(#paint0_linear_501_94)"/>
<path d="M49.6424 129.203C49.6424 129.203 41.3865 148.265 84.7811 153.35V172.626H134.949V121.58L48.998 119.248L49.6424 129.203Z" fill="#FFCBB4"/>
<path d="M74.7154 49.6564C71.9922 53.956 66.3099 55.248 61.9972 52.5481L35.0612 34.7879C30.764 32.0632 29.4728 26.3776 32.1711 22.0623C34.8938 17.7685 40.5689 16.4772 44.8796 19.1705L71.8156 36.9307C76.1162 39.6523 77.4119 45.3385 74.7154 49.6564Z" fill="url(#paint1_linear_501_94)"/>
<path d="M73.2223 48.6874C70.691 52.684 65.4093 53.885 61.4004 51.3756L36.3539 34.854C32.3597 32.3213 31.1594 27.0364 33.6673 23.0252C36.1986 19.0286 41.4803 17.8276 45.4892 20.337L70.5308 36.8489C74.5327 39.3804 75.7359 44.6729 73.2223 48.6874Z" fill="#FFCBB4"/>
<path d="M125.426 143.184C135.831 143.184 144.266 134.744 144.266 124.333C144.266 113.922 135.831 105.482 125.426 105.482C115.021 105.482 106.586 113.922 106.586 124.333C106.586 134.744 115.021 143.184 125.426 143.184Z" fill="#FFCBB4"/>
<path d="M122.034 0H49.8621C48.2232 0 46.8945 1.32941 46.8945 2.96933V138.094C46.8945 139.734 48.2232 141.064 49.8621 141.064H122.034C123.673 141.064 125.001 139.734 125.001 138.094V2.96933C125.001 1.32941 123.673 0 122.034 0Z" fill="url(#paint2_linear_501_94)"/>
<path d="M120.639 1.90723H51.2535C49.4286 1.90723 47.9492 3.38749 47.9492 5.21348V135.854C47.9492 137.68 49.4286 139.16 51.2535 139.16H120.639C122.464 139.16 123.944 137.68 123.944 135.854V5.21348C123.944 3.38749 122.464 1.90723 120.639 1.90723Z" fill="white"/>
<path d="M105.038 5.34961C104.584 8.35725 102.005 10.5837 98.9648 10.5926H72.7192C69.6802 10.5825 67.1025 8.35634 66.6484 5.34961H52.7431C51.9775 5.34961 51.243 5.65284 50.7014 6.19431C50.1598 6.73578 49.8555 7.47045 49.8555 8.23652V132.827C49.8555 133.593 50.1585 134.328 50.6997 134.87C51.2408 135.412 51.9751 135.716 52.7407 135.716H119.152C119.917 135.716 120.652 135.413 121.193 134.872C121.735 134.33 122.039 133.595 122.039 132.829V8.23895C122.039 7.47287 121.736 6.73795 121.195 6.19602C120.654 5.6541 119.92 5.34961 119.154 5.34961H105.038Z" fill="#E9ECFF"/>
<path d="M94.0373 6.99023H78.0704C77.8029 6.99023 77.5859 7.20728 77.5859 7.47502V7.56471C77.5859 7.83245 77.8029 8.0495 78.0704 8.0495H94.0373C94.3049 8.0495 94.5218 7.83245 94.5218 7.56471V7.47502C94.5218 7.20728 94.3049 6.99023 94.0373 6.99023Z" fill="#DBDBDB"/>
<path d="M98.1193 8.2044C98.5552 8.2044 98.9086 7.85084 98.9086 7.4147C98.9086 6.97856 98.5552 6.625 98.1193 6.625C97.6834 6.625 97.3301 6.97856 97.3301 7.4147C97.3301 7.85084 97.6834 8.2044 98.1193 8.2044Z" fill="#DBDBDB"/>
<path d="M137.603 127.659C132.135 128.925 128.383 125.357 127.118 119.888L114.555 73.2103C113.305 67.7207 116.719 62.2512 122.198 60.967C127.684 59.7163 133.15 63.1327 134.434 68.6145L144.686 116.497C145.951 121.968 143.068 126.394 137.603 127.659Z" fill="url(#paint3_linear_501_94)"/>
<path d="M133.025 69.7575C131.959 65.1415 127.355 62.264 122.742 63.3306C118.129 64.3971 115.253 69.0038 116.319 73.6198L127.871 123.648C128.937 128.264 133.541 131.142 138.154 130.075C142.768 129.009 145.643 124.402 144.578 119.786L133.025 69.7575Z" fill="#FFCBB4"/>
<path d="M144.185 166.318H72.4785V183.044H144.185V166.318Z" fill="url(#paint4_linear_501_94)"/>
<path d="M142.247 168.258H74.416V181.347H142.247V168.258Z" fill="#4D8AF0"/>
<path d="M64.2598 99.731C61.5697 103.98 55.9553 105.256 51.6942 102.589L33.6294 90.8933C29.3834 88.2017 28.1072 82.5841 30.7733 78.3204C33.4633 74.0719 39.0777 72.795 43.3389 75.4626L61.4036 87.1581C65.6497 89.8497 66.9258 95.4674 64.2598 99.731Z" fill="url(#paint5_linear_501_94)"/>
<path d="M59.7233 124.486C57.0092 128.773 51.3437 130.062 47.0438 127.37L35.8542 119.207C31.5692 116.491 30.2811 110.822 32.9714 106.52C35.6854 102.232 41.3509 100.943 45.6508 103.635L56.8405 111.802C61.124 114.517 62.4119 120.184 59.7233 124.486Z" fill="url(#paint6_linear_501_94)"/>
<g opacity="0.5">
<path d="M85.9464 92.3352C97.9796 92.3352 107.735 82.5746 107.735 70.5343C107.735 58.494 97.9796 48.7334 85.9464 48.7334C73.9131 48.7334 64.1582 58.494 64.1582 70.5343C64.1582 82.5746 73.9131 92.3352 85.9464 92.3352Z" fill="url(#paint7_linear_501_94)"/>
</g>
<path d="M85.9461 91.0529C97.2716 91.0529 106.453 81.8664 106.453 70.5343C106.453 59.2021 97.2716 50.0156 85.9461 50.0156C74.6206 50.0156 65.4395 59.2021 65.4395 70.5343C65.4395 81.8664 74.6206 91.0529 85.9461 91.0529Z" fill="#69F0AE"/>
<path d="M77.0448 67.7952L84.7339 74.8488L95.628 58.8193L99.475 62.0262L84.7339 81.2626L73.8398 69.0799L77.0448 67.7952Z" fill="white"/>
<path d="M58.821 123.878C56.2898 127.874 51.008 129.075 46.9991 126.566L36.5629 118.964C32.5686 116.432 31.3683 111.147 33.8763 107.136C36.4076 103.139 41.6893 101.938 45.6982 104.447L56.132 112.063C60.1183 114.595 61.3187 119.869 58.821 123.878Z" fill="#FFCBB4"/>
<path d="M63.266 99.0885C60.7347 103.085 55.453 104.286 51.4441 101.777L34.4477 90.772C30.4534 88.2393 29.2531 82.9544 31.7611 78.9432C34.2923 74.9466 39.5741 73.7456 43.583 76.255L60.5794 87.2597C64.5736 89.7924 65.7739 95.0773 63.266 99.0885Z" fill="#FFCBB4"/>
<path d="M68.93 75.0916C66.2267 79.3588 60.587 80.6409 56.3062 77.9616L33.4134 63.0471C29.1488 60.3421 27.8674 54.6992 30.5451 50.4159C33.2485 46.1488 38.8882 44.8666 43.1689 47.546L66.0617 62.4605C70.3264 65.1654 71.6078 70.8084 68.93 75.0916Z" fill="url(#paint8_linear_501_94)"/>
<path d="M67.7132 74.3157C65.182 78.3123 59.9002 79.5133 55.8913 77.0038L34.4496 63.0347C30.4554 60.502 29.2551 55.2171 31.763 51.2059C34.2943 47.2093 39.576 46.0083 43.5849 48.5177L65.0243 62.4869C69.0194 65.0188 70.2208 70.3038 67.7132 74.3157Z" fill="#FFCBB4"/>
</g>
<defs>
<linearGradient id="paint0_linear_501_94" x1="96.6391" y1="174.107" x2="96.6391" y2="103.997" gradientUnits="userSpaceOnUse">
<stop stop-color="#808080" stop-opacity="0.25"/>
<stop offset="0.54" stop-color="#808080" stop-opacity="0.12"/>
<stop offset="1" stop-color="#808080" stop-opacity="0.1"/>
</linearGradient>
<linearGradient id="paint1_linear_501_94" x1="53.4408" y1="53.9613" x2="53.4408" y2="17.7622" gradientUnits="userSpaceOnUse">
<stop stop-color="#808080" stop-opacity="0.25"/>
<stop offset="0.54" stop-color="#808080" stop-opacity="0.12"/>
<stop offset="1" stop-color="#808080" stop-opacity="0.1"/>
</linearGradient>
<linearGradient id="paint2_linear_501_94" x1="85.948" y1="141.061" x2="85.948" y2="-0.00242152" gradientUnits="userSpaceOnUse">
<stop stop-color="#808080" stop-opacity="0.25"/>
<stop offset="0.54" stop-color="#808080" stop-opacity="0.12"/>
<stop offset="1" stop-color="#808080" stop-opacity="0.1"/>
</linearGradient>
<linearGradient id="paint3_linear_501_94" x1="129.637" y1="127.911" x2="129.637" y2="60.7052" gradientUnits="userSpaceOnUse">
<stop stop-color="#808080" stop-opacity="0.25"/>
<stop offset="0.54" stop-color="#808080" stop-opacity="0.12"/>
<stop offset="1" stop-color="#808080" stop-opacity="0.1"/>
</linearGradient>
<linearGradient id="paint4_linear_501_94" x1="108.337" y1="183.039" x2="108.337" y2="166.314" gradientUnits="userSpaceOnUse">
<stop stop-color="#808080" stop-opacity="0.25"/>
<stop offset="0.54" stop-color="#808080" stop-opacity="0.12"/>
<stop offset="1" stop-color="#808080" stop-opacity="0.1"/>
</linearGradient>
<linearGradient id="paint5_linear_501_94" x1="47.5129" y1="103.983" x2="47.5129" y2="74.0712" gradientUnits="userSpaceOnUse">
<stop stop-color="#808080" stop-opacity="0.25"/>
<stop offset="0.54" stop-color="#808080" stop-opacity="0.12"/>
<stop offset="1" stop-color="#808080" stop-opacity="0.1"/>
</linearGradient>
<linearGradient id="paint6_linear_501_94" x1="46.3485" y1="128.776" x2="46.3485" y2="102.227" gradientUnits="userSpaceOnUse">
<stop stop-color="#808080" stop-opacity="0.25"/>
<stop offset="0.54" stop-color="#808080" stop-opacity="0.12"/>
<stop offset="1" stop-color="#808080" stop-opacity="0.1"/>
</linearGradient>
<linearGradient id="paint7_linear_501_94" x1="85.9464" y1="92.3352" x2="85.9464" y2="48.731" gradientUnits="userSpaceOnUse">
<stop stop-color="#808080" stop-opacity="0.25"/>
<stop offset="0.54" stop-color="#808080" stop-opacity="0.12"/>
<stop offset="1" stop-color="#808080" stop-opacity="0.1"/>
</linearGradient>
<linearGradient id="paint8_linear_501_94" x1="49.7364" y1="79.3699" x2="49.7364" y2="46.1546" gradientUnits="userSpaceOnUse">
<stop stop-color="#808080" stop-opacity="0.25"/>
<stop offset="0.54" stop-color="#808080" stop-opacity="0.12"/>
<stop offset="1" stop-color="#808080" stop-opacity="0.1"/>
</linearGradient>
<clipPath id="clip0_501_94">
<rect width="176" height="184" fill="white"/>
</clipPath>
</defs>
</svg>
